<!-- <?xml version="1.0" standalone="no"?><svg xmlns="http://www.w3.org/2000/svg" viewBox="0 0 1440 320"><path fill="#581fbd" fill-opacity="0.6" d="M0,32L40,58.7C80,85,160,139,240,170.7C320,203,400,213,480,202.7C560,192,640,160,720,144C800,128,880,128,960,138.7C1040,149,1120,171,1200,165.3C1280,160,1360,128,1400,112L1440,96L1440,320L1400,320C1360,320,1280,320,1200,320C1120,320,1040,320,960,320C880,320,800,320,720,320C640,320,560,320,480,320C400,320,320,320,240,320C160,320,80,320,40,320L0,320Z"></path></svg> -->

<svg xmlns="http://www.w3.org/2000/svg" viewBox="0 0 1440 320"><path fill="#581fbd" fill-opacity="0.7" d="M0,192L21.8,165.3C43.6,139,87,85,131,85.3C174.5,85,218,139,262,149.3C305.5,160,349,128,393,96C436.4,64,480,32,524,64C567.3,96,611,192,655,213.3C698.2,235,742,181,785,176C829.1,171,873,213,916,229.3C960,245,1004,235,1047,202.7C1090.9,171,1135,117,1178,85.3C1221.8,53,1265,43,1309,64C1352.7,85,1396,139,1418,165.3L1440,192L1440,320L1418.2,320C1396.4,320,1353,320,1309,320C1265.5,320,1222,320,1178,320C1134.5,320,1091,320,1047,320C1003.6,320,960,320,916,320C872.7,320,829,320,785,320C741.8,320,698,320,655,320C610.9,320,567,320,524,320C480,320,436,320,393,320C349.1,320,305,320,262,320C218.2,320,175,320,131,320C87.3,320,44,320,22,320L0,320Z"></path></svg>