<?xml version="1.0" standalone="no"?><svg xmlns="http://www.w3.org/2000/svg" viewBox="0 0 1440 320"><path fill="#581fbd" fill-opacity="0.4" d="M0,96L34.3,133.3C68.6,171,137,245,206,261.3C274.3,277,343,235,411,197.3C480,160,549,128,617,101.3C685.7,75,754,53,823,69.3C891.4,85,960,139,1029,144C1097.1,149,1166,107,1234,96C1302.9,85,1371,107,1406,117.3L1440,128L1440,320L1405.7,320C1371.4,320,1303,320,1234,320C1165.7,320,1097,320,1029,320C960,320,891,320,823,320C754.3,320,686,320,617,320C548.6,320,480,320,411,320C342.9,320,274,320,206,320C137.1,320,69,320,34,320L0,320Z"></path></svg>